<svg xmlns="http://www.w3.org/2000/svg" width="256" height="256" viewBox="0 0 256 256"><defs><linearGradient id="bgGradient" x1="0%" x2="100%" y1="0%" y2="100%"><stop offset="0%" style="stop-color:#9333ea;stop-opacity:1"/><stop offset="100%" style="stop-color:#06b6d4;stop-opacity:1"/></linearGradient><linearGradient id="glowGradient" x1="0%" x2="100%" y1="0%" y2="100%"><stop offset="0%" style="stop-color:#fff;stop-opacity:.3"/><stop offset="100%" style="stop-color:#fff;stop-opacity:0"/></linearGradient></defs><rect width="236" height="236" x="10" y="10" fill="url(#bgGradient)" rx="45"/><rect width="176" height="130" x="40" y="40" fill="#1A1A1A" opacity=".9" rx="12"/><text x="60" y="85" fill="#9333EA" font-family="Arial, sans-serif" font-size="40" font-weight="bold">&quot;</text><text x="180" y="155" fill="#06B6D4" font-family="Arial, sans-serif" font-size="40" font-weight="bold">&quot;</text><rect width="96" height="6" x="80" y="95" fill="#FFF" opacity=".6" rx="3"/><rect width="80" height="6" x="80" y="110" fill="#FFF" opacity=".5" rx="3"/><rect width="72" height="6" x="80" y="125" fill="#FFF" opacity=".4" rx="3"/><g opacity=".8"><ellipse cx="50" cy="190" fill="#FFB7C5" rx="8" ry="12" transform="rotate(-20 50 190)"/><ellipse cx="54" cy="188" fill="#FFC9D5" rx="6" ry="10" transform="rotate(-20 54 188)"/><ellipse cx="200" cy="50" fill="#FFB7C5" rx="10" ry="14" transform="rotate(30 200 50)"/><ellipse cx="204" cy="47" fill="#FFC9D5" rx="7" ry="11" transform="rotate(30 204 47)"/><ellipse cx="230" cy="200" fill="#FFB7C5" rx="9" ry="13" transform="rotate(15 230 200)"/><ellipse cx="233" cy="197" fill="#FFC9D5" rx="6" ry="10" transform="rotate(15 233 197)"/></g><g fill="#FFF" opacity=".9"><polygon points="70 30 73 37 80 37 74 42 77 49 70 44 63 49 66 42 60 37 67 37" transform="scale(0.7)"/><polygon points="210 160 213 167 220 167 214 172 217 179 210 174 203 179 206 172 200 167 207 167" transform="scale(0.5)"/><polygon points="40 220 42 225 47 225 43 228 45 233 40 229 35 233 37 228 33 225 38 225" transform="scale(0.6)"/></g><rect width="176" height="8" x="40" y="185" fill="url(#glowGradient)" rx="4"/><path fill="#06B6D4" d="M 70 200 L 95 175 L 120 195 L 140 170 L 165 190 L 190 200 Z" opacity=".3"/><path fill="#9333EA" d="M 60 210 L 90 180 L 128 205 L 150 185 L 180 205 L 200 210 Z" opacity=".3"/></svg>